# xmcd
#
# Track frame offsets: 
#        150
#        9140
#        21340
#        32355
#        46397
#        57920
#        70272
#        81782
#        94562
#        104040
#        116672
#        132680
#
# Disc length: 1915 seconds
#
# Revision: 0
# Processed by: cddbd v1.5.1PL0 Copyright (c) Steve Scherf et al.
# Submitted via: ExactAudioCopy v0.95b3
#
DISCID=9a07790c
DTITLE=Solomon Burke - The Best Of Solomon Burke
DYEAR=1900
DGENRE=R&B
TTITLE0=Got To Get You Off My Mind
TTITLE1=The Price
TTITLE2=Down In The Valley
TTITLE3=I'm Hanging Up My Heart
TTITLE4=If You Need Me
TTITLE5=Just Out Of Reach
TTITLE6=Cry To Me
TTITLE7=Everybody Needs Somebody To Love
TTITLE8=Home In Your Heart
TTITLE9=Tonight's The Night
TTITLE10=I Really Don't Want To Know
TTITLE11=Words
EXTD=
EXTT0=
EXTT1=
EXTT2=
EXTT3=
EXTT4=
EXTT5=
EXTT6=
EXTT7=
EXTT8=
EXTT9=
EXTT10=
EXTT11=
PLAYORDER=
